{
  "accessors": [
    {
      "bufferView": 0,
      "componentType": 5125,
      "count": 186018,
      "type": "SCALAR"
    },
    {
      "bufferView": 1,
      "componentType": 5126,
      "count": 42422,
      "max": [
        1.0,
        0.581501603126526,
        0.628051400184631
      ],
      "min": [
        -1.00000011920929,
        -0.581501722335815,
        -0.628051519393921
      ],
      "type": "VEC3"
    },
    {
      "bufferView": 2,
      "componentType": 5126,
      "count": 42422,
      "type": "VEC3"
    },
    {
      "bufferView": 3,
      "componentType": 5126,
      "count": 42422,
      "type": "VEC2"
    }
  ],
  "asset": {
    "generator": "Substance Painter 2019.2.2",
    "version": "2.0"
  },
  "bufferViews": [
    {
      "buffer": 0,
      "byteLength": 744072,
      "target": 34963
    },
    {
      "buffer": 0,
      "byteLength": 509064,
      "byteOffset": 744072,
      "target": 34962
    },
    {
      "buffer": 0,
      "byteLength": 509064,
      "byteOffset": 1253136,
      "target": 34962
    },
    {
      "buffer": 0,
      "byteLength": 339376,
      "byteOffset": 1762200,
      "target": 34962
    }
  ],
  "buffers": [
    {
      "byteLength": 2101576,
      "uri": "1Modem.bin"
    }
  ],
  "images": [
    {
      "uri": "DefaultMaterial_baseColor.png"
    },
    {
      "uri": "DefaultMaterial_occlusionRoughnessMetallic.png"
    },
    {
      "uri": "DefaultMaterial_normal.png"
    },
    {
      "uri": "DefaultMaterial_emissive.png"
    }
  ],
  "materials": [
    {
      "alphaMode": "OPAQUE",
      "emissiveFactor": [
        1.0,
        1.0,
        1.0
      ],
      "emissiveTexture": {
        "index": 3
      },
      "name": "DefaultMaterial",
      "normalTexture": {
        "index": 2
      },
      "occlusionTexture": {
        "index": 1
      },
      "pbrMetallicRoughness": {
        "baseColorTexture": {
          "index": 0
        },
        "metallicRoughnessTexture": {
          "index": 1
        }
      }
    }
  ],
  "meshes": [
    {
      "name": "Base",
      "primitives": [
        {
          "attributes": {
            "NORMAL": 2,
            "POSITION": 1,
            "TEXCOORD_0": 3
          },
          "indices": 0,
          "material": 0,
          "mode": 4
        }
      ]
    }
  ],
  "nodes": [
    {
      "children": [
        1
      ],
      "name": "root",
      "scale": [
        18.2505950927734,
        18.2505950927734,
        18.2505950927734
      ],
      "translation": [
        1.9073486328125e-06,
        10.613452911377,
        -1.47864627838135
      ]
    },
    {
      "children": [
        2
      ],
      "name": "Base"
    },
    {
      "mesh": 0,
      "name": "Base"
    }
  ],
  "samplers": [
    {
      "magFilter": 9729,
      "minFilter": 9985,
      "wrapS": 10497,
      "wrapT": 10497
    }
  ],
  "scene": 0,
  "scenes": [
    {
      "name": "Scene",
      "nodes": [
        0
      ]
    }
  ],
  "textures": [
    {
      "sampler": 0,
      "source": 0
    },
    {
      "sampler": 0,
      "source": 1
    },
    {
      "sampler": 0,
      "source": 2
    },
    {
      "sampler": 0,
      "source": 3
    }
  ]
}